<svg width="232" height="84" viewBox="0 0 232 84" fill="none" xmlns="http://www.w3.org/2000/svg">
<path d="M87.7764 69.8096H86.0162L89.9713 58.9795H91.8871L95.8421 69.8096H94.0819L90.9748 60.9467H90.8889L87.7764 69.8096ZM88.0716 65.5685H93.7814V66.9434H88.0716V65.5685Z" fill="white"/>
<path fill-rule="evenodd" clip-rule="evenodd" d="M114.333 58.3979C114.433 58.5425 114.482 58.6871 114.482 58.8316L113.144 66.9279C113.144 67.0243 113.144 67.0966 113.144 67.1448C113.144 67.4339 113.193 67.6267 113.292 67.7231C113.367 67.7954 113.59 67.8677 113.664 67.8677C113.763 67.8677 113.862 67.9159 113.962 68.0122C114.061 68.1568 114.11 68.3014 114.11 68.446L114.036 69.1688C114.036 69.3616 113.986 69.4821 113.887 69.5303C113.788 69.5785 113.664 69.6508 113.515 69.7472C113.367 69.7472 112.995 69.8917 112.697 69.8917C112.003 69.8917 111.458 69.7231 111.062 69.3857C110.714 69.0966 110.541 68.6628 110.541 68.0845C110.541 67.8918 110.566 67.699 110.615 67.5062C110.615 67.4339 112.028 58.7594 112.028 58.6871C112.028 58.3979 112.326 58.1811 112.549 58.1811H113.887C114.086 58.1811 114.234 58.2533 114.333 58.3979ZM118.572 61.5063C118.671 61.6509 118.721 61.7955 118.721 61.94L117.531 69.2411C117.457 69.5303 117.233 69.6749 117.01 69.6749H115.672C115.474 69.6749 115.325 69.6267 115.226 69.5303C115.127 69.3857 115.077 69.2411 115.077 69.0966L116.267 61.7955C116.341 61.5063 116.564 61.2894 116.862 61.2894H118.126C118.324 61.2894 118.473 61.3617 118.572 61.5063ZM116.787 60.3497C116.589 60.1569 116.49 59.8919 116.49 59.5545C116.49 59.1208 116.639 58.7594 116.936 58.4702C117.184 58.2292 117.581 58.1088 118.126 58.1088C118.522 58.1088 118.82 58.1811 119.018 58.3256C119.216 58.5184 119.316 58.7835 119.316 59.1208C119.316 59.5545 119.192 59.916 118.944 60.2051C118.696 60.4461 118.275 60.5666 117.68 60.5666C117.283 60.5666 116.986 60.4943 116.787 60.3497ZM137.088 62.0123C136.939 62.4942 136.691 63.0244 136.344 63.6027C135.799 64.4701 135.254 65.1448 134.708 65.6267H134.634L135.973 68.952C136.022 69.0002 136.047 69.0725 136.047 69.1688C136.047 69.458 135.749 69.6749 135.452 69.6749H134.039C133.816 69.6749 133.593 69.5303 133.519 69.3857L132.329 66.4942H131.511L131.065 69.2411C130.99 69.5303 130.767 69.6749 130.544 69.6749H129.206C129.007 69.6749 128.859 69.6267 128.76 69.5303C128.66 69.3857 128.611 69.2411 128.611 69.0966L130.321 58.6871C130.395 58.3979 130.619 58.1811 130.842 58.1811H132.18C132.378 58.1811 132.527 58.2533 132.626 58.3979C132.725 58.5425 132.775 58.6871 132.775 58.8316L131.808 64.687H131.883C132.478 64.5424 132.701 64.4701 132.775 64.4701L132.849 64.3978C133.147 64.2051 133.519 63.7713 133.965 63.0966C134.312 62.5665 134.535 62.1087 134.634 61.7232C134.708 61.5063 134.932 61.2894 135.155 61.2894H136.567C136.791 61.2894 136.939 61.3617 137.014 61.5063C137.162 61.6509 137.162 61.8677 137.088 62.0123ZM158.727 61.5063C158.826 61.6509 158.851 61.7955 158.801 61.94L158.653 62.7352C158.653 63.0244 158.355 63.1689 158.132 63.1689H156.942L156.348 66.7833C156.348 66.8797 156.348 66.952 156.348 67.0002C156.348 67.4339 156.496 67.5785 156.571 67.5785C156.645 67.7231 156.794 67.7231 156.868 67.7231C156.918 67.7231 156.992 67.7231 157.091 67.7231C157.141 67.7231 157.19 67.7231 157.24 67.7231C157.463 67.7231 157.463 67.7954 157.537 67.7954C157.537 67.7954 157.562 67.7954 157.612 67.7954C157.661 67.8436 157.686 67.8677 157.686 67.8677C157.835 68.0122 157.909 68.1568 157.909 68.3737L157.76 69.1688C157.76 69.3134 157.686 69.458 157.463 69.5303C157.463 69.5785 157.463 69.6026 157.463 69.6026C157.389 69.6026 157.314 69.6749 157.24 69.6749C157.166 69.6749 156.496 69.8917 156.05 69.8917C155.257 69.8917 154.687 69.7231 154.34 69.3857C153.943 69.0484 153.745 68.5423 153.745 67.8677C153.745 67.5785 153.77 67.3135 153.819 67.0725L154.414 63.1689H154.117C153.918 63.1689 153.77 63.1207 153.671 63.0244C153.571 62.8798 153.522 62.7352 153.522 62.5906L153.671 61.7955C153.745 61.5063 153.968 61.2894 154.191 61.2894H154.786L155.307 59.6268C155.381 59.41 155.604 59.2654 155.827 59.2654H156.942C157.091 59.2654 157.215 59.3136 157.314 59.41C157.413 59.5545 157.463 59.6991 157.463 59.8437L157.24 61.2894H158.281C158.43 61.2894 158.578 61.3617 158.727 61.5063ZM127.347 62.0846C127.842 62.6629 128.09 63.4581 128.09 64.4701C128.09 65.0966 127.991 65.7231 127.793 66.3496C127.595 66.9279 127.322 67.5062 126.975 68.0845C126.578 68.6146 126.033 69.0484 125.339 69.3857C124.595 69.7231 123.753 69.8917 122.811 69.8917C122.414 69.8917 121.943 69.8435 121.398 69.7472H121.323L121.249 70.7592L120.952 72.4941C120.877 72.7833 120.654 73.0001 120.431 73.0001H119.093C118.894 73.0001 118.746 72.9278 118.646 72.7833C118.547 72.6387 118.498 72.4941 118.498 72.3495L120.282 61.7955C120.282 61.5063 120.505 61.2894 120.803 61.2894H121.695C121.844 61.2894 121.968 61.3617 122.067 61.5063C122.166 61.6027 122.216 61.7232 122.216 61.8678V62.8075L122.29 62.6629C122.29 62.6629 123.108 61.6509 124.372 61.2894C124.719 61.1931 125.066 61.1449 125.413 61.1449C126.256 61.1449 126.9 61.4581 127.347 62.0846ZM125.562 64.9038C125.562 64.4219 125.463 64.0123 125.265 63.675C125.116 63.3376 124.868 63.1689 124.521 63.1689C124.174 63.1689 123.777 63.3858 123.331 63.8195C122.885 64.2533 122.488 64.7834 122.141 65.4099L121.77 67.7231C122.166 67.8195 122.612 67.8677 123.108 67.8677C123.951 67.8677 124.57 67.5544 124.967 66.9279C125.364 66.3014 125.562 65.6267 125.562 64.9038ZM152.853 61.3617C153.001 61.5063 153.076 61.6509 153.001 61.8678L152.778 63.1689C152.704 63.3858 152.555 63.6027 152.332 63.6027C151.886 63.699 151.44 63.8677 150.994 64.1087C150.448 64.446 150.002 64.8557 149.655 65.3376L149.06 69.2411C148.986 69.5303 148.763 69.6749 148.465 69.6749H147.127C146.978 69.6749 146.829 69.6267 146.681 69.5303C146.581 69.3857 146.557 69.2411 146.606 69.0966L147.796 61.7955C147.796 61.5063 148.019 61.2894 148.317 61.2894H149.209C149.358 61.2894 149.482 61.3617 149.581 61.5063C149.68 61.6027 149.729 61.7232 149.729 61.8678V63.0244L149.804 62.8798C149.804 62.8798 150.399 62.2292 150.845 61.94C151.217 61.7232 151.737 61.3617 152.332 61.2172C152.555 61.1449 152.704 61.2172 152.853 61.3617ZM146.234 62.0846L145.045 69.2411C145.045 69.5303 144.747 69.6749 144.524 69.6749H143.632C143.483 69.6749 143.359 69.6267 143.26 69.5303C143.161 69.4339 143.111 69.2893 143.111 69.0966V68.2291L143.037 68.3737C143.037 68.3737 142.665 68.7351 142.293 69.0243C141.698 69.458 141.103 69.6749 141.029 69.6749C140.682 69.8194 140.31 69.8917 139.914 69.8917C139.071 69.8917 138.402 69.5785 137.906 68.952C137.46 68.3255 137.237 67.5303 137.237 66.5665C137.237 66.0364 137.286 65.5303 137.385 65.0484C137.485 64.5665 137.683 64.0846 137.98 63.6027C138.228 63.1207 138.55 62.7111 138.947 62.3738C139.294 61.9882 139.79 61.6991 140.434 61.5063C141.029 61.2653 141.723 61.1449 142.516 61.1449C143.458 61.1449 144.549 61.2653 145.788 61.5063C146.086 61.5786 146.234 61.7955 146.234 62.0846ZM143.557 63.3135H143.483C143.136 63.1689 142.69 63.0966 142.145 63.0966C141.351 63.0966 140.756 63.4099 140.36 64.0364C139.963 64.6629 139.765 65.3617 139.765 66.1327C139.765 66.6147 139.839 67.0243 139.988 67.3616C140.186 67.6508 140.434 67.7954 140.732 67.7954C141.079 67.7954 141.5 67.5785 141.996 67.1448C142.442 66.7111 142.839 66.205 143.186 65.6267L143.557 63.3135ZM110.02 60.3497H105.633L105.187 63.2412H108.608C108.756 63.2412 108.88 63.3135 108.979 63.4581C109.128 63.5545 109.178 63.699 109.128 63.8918L108.979 64.7593C108.979 65.0484 108.682 65.193 108.459 65.193H104.815L104.146 69.2411C104.146 69.5303 103.923 69.6749 103.625 69.6749H102.138C101.989 69.6749 101.865 69.6267 101.766 69.5303C101.667 69.3857 101.618 69.2411 101.618 69.0966L103.328 58.6871C103.328 58.3979 103.551 58.2533 103.848 58.2533H110.169C110.318 58.2533 110.467 58.3015 110.615 58.3979C110.714 58.5425 110.739 58.6871 110.69 58.8316L110.541 59.8437C110.541 60.1328 110.318 60.3497 110.02 60.3497Z" fill="white"/>
<path d="M173.763 62.5003H172.089C172.024 62.1477 171.904 61.8375 171.729 61.5696C171.554 61.3016 171.339 61.0742 171.085 60.8874C170.831 60.7006 170.547 60.5595 170.232 60.4644C169.921 60.3692 169.59 60.3216 169.239 60.3216C168.606 60.3216 168.039 60.4785 167.538 60.7922C167.041 61.106 166.647 61.566 166.357 62.1724C166.071 62.7788 165.928 63.5191 165.928 64.3934C165.928 65.2748 166.071 66.0186 166.357 66.625C166.647 67.2314 167.042 67.6897 167.543 67.9999C168.044 68.3102 168.608 68.4653 169.234 68.4653C169.581 68.4653 169.91 68.4195 170.221 68.3278C170.536 68.2326 170.82 68.0934 171.074 67.91C171.328 67.7267 171.543 67.5028 171.718 67.2384C171.897 66.9705 172.021 66.6638 172.089 66.3183L173.763 66.3236C173.673 66.8559 173.5 67.346 173.242 67.7937C172.988 68.2379 172.661 68.6222 172.26 68.9465C171.863 69.2673 171.409 69.5159 170.897 69.6921C170.386 69.8684 169.828 69.9565 169.223 69.9565C168.271 69.9565 167.423 69.7344 166.679 69.2902C165.935 68.8425 165.348 68.2026 164.919 67.3706C164.493 66.5386 164.281 65.5462 164.281 64.3934C164.281 63.2371 164.495 62.2447 164.924 61.4162C165.354 60.5842 165.941 59.9461 166.685 59.5019C167.429 59.0542 168.275 58.8303 169.223 58.8303C169.806 58.8303 170.35 58.9132 170.854 59.0789C171.362 59.241 171.818 59.4808 172.223 59.798C172.627 60.1118 172.962 60.4961 173.226 60.9509C173.491 61.4021 173.67 61.9186 173.763 62.5003Z" fill="white"/>
<path d="M179.09 69.9724C178.318 69.9724 177.643 69.7979 177.067 69.4489C176.491 69.0999 176.044 68.6116 175.726 67.9841C175.407 67.3565 175.248 66.6233 175.248 65.7842C175.248 64.9416 175.407 64.2048 175.726 63.5738C176.044 62.9427 176.491 62.4527 177.067 62.1037C177.643 61.7547 178.318 61.5801 179.09 61.5801C179.863 61.5801 180.538 61.7547 181.114 62.1037C181.689 62.4527 182.137 62.9427 182.455 63.5738C182.774 64.2048 182.933 64.9416 182.933 65.7842C182.933 66.6233 182.774 67.3565 182.455 67.9841C182.137 68.6116 181.689 69.0999 181.114 69.4489C180.538 69.7979 179.863 69.9724 179.09 69.9724ZM179.096 68.6451C179.597 68.6451 180.012 68.5146 180.341 68.2538C180.67 67.9929 180.913 67.6456 181.071 67.212C181.232 66.7784 181.312 66.3007 181.312 65.7789C181.312 65.2607 181.232 64.7847 181.071 64.3511C180.913 63.914 180.67 63.5632 180.341 63.2988C180.012 63.0344 179.597 62.9022 179.096 62.9022C178.591 62.9022 178.173 63.0344 177.84 63.2988C177.511 63.5632 177.266 63.914 177.105 64.3511C176.947 64.7847 176.869 65.2607 176.869 65.7789C176.869 66.3007 176.947 66.7784 177.105 67.212C177.266 67.6456 177.511 67.9929 177.84 68.2538C178.173 68.5146 178.591 68.6451 179.096 68.6451Z" fill="white"/>
<path d="M184.724 69.8085V61.6859H186.264V63.0079H186.366C186.538 62.5602 186.818 62.2112 187.208 61.9609C187.598 61.7071 188.065 61.5801 188.609 61.5801C189.16 61.5801 189.621 61.7071 189.994 61.9609C190.369 62.2147 190.646 62.5637 190.825 63.0079H190.911C191.108 62.5743 191.421 62.2288 191.85 61.9715C192.28 61.7106 192.791 61.5801 193.385 61.5801C194.133 61.5801 194.743 61.8111 195.215 62.2729C195.691 62.7347 195.929 63.431 195.929 64.3617V69.8085H194.324V64.5098C194.324 63.9598 194.172 63.5614 193.868 63.3147C193.564 63.0679 193.201 62.9445 192.779 62.9445C192.256 62.9445 191.85 63.1031 191.561 63.4204C191.271 63.7342 191.126 64.1378 191.126 64.6314V69.8085H189.527V64.4093C189.527 63.9686 189.387 63.6143 189.108 63.3464C188.829 63.0784 188.466 62.9445 188.019 62.9445C187.715 62.9445 187.434 63.0238 187.176 63.1824C186.922 63.3376 186.716 63.5544 186.559 63.8329C186.405 64.1114 186.328 64.434 186.328 64.8006V69.8085H184.724Z" fill="white"/>
<path d="M198.079 72.8544V61.6859H199.646V63.0027H199.78C199.873 62.8334 200.008 62.6378 200.183 62.4157C200.358 62.1936 200.602 61.9997 200.913 61.834C201.224 61.6648 201.635 61.5801 202.147 61.5801C202.812 61.5801 203.406 61.7458 203.929 62.0772C204.451 62.4086 204.861 62.8863 205.158 63.5103C205.458 64.1343 205.608 64.8852 205.608 65.7631C205.608 66.6409 205.46 67.3936 205.163 68.0211C204.866 68.6451 204.458 69.1263 203.939 69.4647C203.421 69.7997 202.829 69.9671 202.163 69.9671C201.662 69.9671 201.253 69.8843 200.934 69.7186C200.619 69.5529 200.373 69.359 200.194 69.1369C200.015 68.9148 199.877 68.7174 199.78 68.5446H199.684V72.8544H198.079ZM199.652 65.7472C199.652 66.3183 199.736 66.8189 199.904 67.249C200.072 67.6791 200.315 68.0158 200.634 68.259C200.952 68.4988 201.342 68.6186 201.804 68.6186C202.283 68.6186 202.684 68.4935 203.006 68.2432C203.328 67.9894 203.571 67.6456 203.735 67.212C203.904 66.7784 203.988 66.2901 203.988 65.7472C203.988 65.2113 203.905 64.7301 203.741 64.3035C203.58 63.877 203.337 63.5403 203.011 63.2935C202.689 63.0467 202.287 62.9233 201.804 62.9233C201.338 62.9233 200.945 63.0414 200.623 63.2776C200.305 63.5138 200.063 63.8435 199.899 64.2665C199.734 64.6896 199.652 65.1831 199.652 65.7472Z" fill="white"/>
<path d="M209.805 69.9883C209.283 69.9883 208.81 69.8931 208.388 69.7027C207.966 69.5088 207.631 69.2285 207.385 68.8619C207.141 68.4953 207.02 68.0458 207.02 67.5134C207.02 67.0551 207.109 66.6779 207.288 66.3818C207.467 66.0856 207.708 65.8512 208.012 65.6784C208.317 65.5057 208.656 65.3753 209.032 65.2871C209.408 65.199 209.791 65.132 210.181 65.0862C210.674 65.0298 211.075 64.9839 211.383 64.9487C211.69 64.9099 211.914 64.8482 212.053 64.7636C212.193 64.679 212.263 64.5415 212.263 64.3511V64.3141C212.263 63.8523 212.13 63.4944 211.866 63.2406C211.604 62.9868 211.214 62.8599 210.696 62.8599C210.155 62.8599 209.73 62.978 209.418 63.2142C209.111 63.4469 208.898 63.706 208.78 63.9915L207.272 63.6531C207.451 63.1595 207.712 62.7612 208.055 62.458C208.402 62.1513 208.801 61.9292 209.252 61.7917C209.703 61.6507 210.177 61.5801 210.674 61.5801C211.003 61.5801 211.352 61.6189 211.721 61.6965C212.093 61.7705 212.44 61.908 212.762 62.109C213.087 62.3099 213.354 62.5972 213.561 62.9709C213.769 63.3411 213.873 63.8223 213.873 64.4146V69.8085H212.306V68.698H212.241C212.137 68.9024 211.982 69.1034 211.774 69.3008C211.567 69.4982 211.3 69.6622 210.975 69.7926C210.649 69.923 210.259 69.9883 209.805 69.9883ZM210.154 68.7191C210.597 68.7191 210.977 68.6327 211.291 68.46C211.61 68.2873 211.851 68.0616 212.016 67.7831C212.184 67.5011 212.268 67.1997 212.268 66.8788V65.8318C212.211 65.8882 212.1 65.9411 211.935 65.9904C211.774 66.0363 211.59 66.0768 211.383 66.1121C211.175 66.1438 210.973 66.1738 210.776 66.202C210.579 66.2266 210.415 66.2478 210.282 66.2654C209.971 66.3042 209.687 66.3694 209.429 66.4611C209.175 66.5527 208.971 66.6849 208.817 66.8577C208.667 67.0269 208.592 67.2525 208.592 67.5346C208.592 67.9259 208.739 68.222 209.032 68.423C209.325 68.6204 209.699 68.7191 210.154 68.7191Z" fill="white"/>
<path d="M217.614 64.9857V69.8085H216.01V61.6859H217.55V63.0079H217.652C217.841 62.5778 218.138 62.2323 218.543 61.9715C218.951 61.7106 219.464 61.5801 220.083 61.5801C220.644 61.5801 221.136 61.6965 221.559 61.9292C221.981 62.1583 222.308 62.5003 222.541 62.9551C222.773 63.4098 222.889 63.9721 222.889 64.642V69.8085H221.285V64.8323C221.285 64.2436 221.129 63.7835 220.818 63.4521C220.507 63.1172 220.079 62.9498 219.535 62.9498C219.163 62.9498 218.832 63.0291 218.543 63.1877C218.256 63.3464 218.029 63.5791 217.861 63.8858C217.697 64.189 217.614 64.5556 217.614 64.9857Z" fill="white"/>
<path d="M225.76 72.8544C225.521 72.8544 225.303 72.835 225.106 72.7963C224.909 72.761 224.762 72.7222 224.666 72.6799L225.052 71.3843C225.345 71.4619 225.607 71.4954 225.836 71.4848C226.065 71.4742 226.267 71.3896 226.442 71.231C226.621 71.0723 226.778 70.8132 226.914 70.4536L227.113 69.9142L224.097 61.6859H225.814L227.902 67.9894H227.987L230.075 61.6859H231.798L228.401 70.8925C228.243 71.3156 228.043 71.6734 227.8 71.966C227.556 72.2622 227.267 72.4843 226.93 72.6323C226.594 72.7804 226.204 72.8544 225.76 72.8544Z" fill="white"/>
<path d="M41.5206 21.9916C32.0497 28.8016 23.8668 37.6842 16.5931 45.0864C16.0627 45.6046 15.3051 45.9747 14.5474 45.9747C13.6382 45.9747 12.9563 45.4565 12.2744 44.4942C10.3802 41.7554 7.57676 35.0934 6.21294 32.2066C5.22796 29.8379 5.75834 27.9133 8.1829 26.877C10.6075 25.9147 13.3351 25.7667 14.017 28.4315C14.017 28.4315 15.2293 33.1689 15.6081 34.5753C23.1091 27.6912 32.3528 20.5111 40.2326 16.0698C38.2626 12.4427 34.4743 10 30.0797 10H11.5167C5.07643 10 0 15.0335 0 21.2513V39.3867C0 45.6046 5.07643 50.6381 11.5167 50.6381H30.0797C36.3684 50.6381 41.5206 45.6046 41.5206 39.3867V21.9916Z" fill="#FF4F17"/>
<path d="M187.675 21.0266C182.902 21.0266 180.478 23.0992 180.478 27.6886V45.2318H186.16V27.9847C186.16 26.4302 186.842 25.69 188.433 25.69H193.358V21.0266H187.675Z" fill="#FF4F17"/>
<path d="M199.344 10.073C197.525 10.073 196.01 11.5534 196.01 13.404C196.01 15.1805 197.525 16.661 199.344 16.661C201.238 16.661 202.753 15.1805 202.753 13.404C202.753 11.5534 201.238 10.073 199.344 10.073Z" fill="#FF4F17"/>
<path d="M196.617 20.8776V45.2308H202.148V20.8776H196.617Z" fill="#FF4F17"/>
<path d="M90.5427 40.6441C88.8758 40.6441 88.1939 40.1999 88.1939 38.5714V10.073H82.5871V38.5714C82.5871 43.3829 85.3147 45.3074 89.6335 45.3074H92.6642V40.6441H90.5427Z" fill="#FF4F17"/>
<path d="M157.065 20.9557C152.292 20.9557 149.943 22.9543 149.943 27.6177V45.2349H155.55V27.9138C155.55 26.3593 156.308 25.6191 157.899 25.6191H162.824V20.9557H157.065Z" fill="#FF4F17"/>
<path d="M171.614 20.9489V14.8792H166.007V38.5662C166.007 43.1555 168.432 45.2282 173.129 45.2282H177.372V40.5648H173.963C172.447 40.5648 171.614 40.0466 171.614 38.5662V25.6123H177.372V20.9489H171.614Z" fill="#FF4F17"/>
<path fill-rule="evenodd" clip-rule="evenodd" d="M212.452 21.1006V23.1732C214.498 21.8409 216.923 21.0266 219.574 21.0266C226.469 21.0266 232 26.4302 232 33.1662C232 39.9022 226.469 45.3058 219.574 45.3058C216.923 45.3058 214.498 44.4916 212.452 43.1592V55.8169H206.845V21.1006H212.452ZM219.574 40.0503C223.439 40.0503 226.621 37.0154 226.621 33.1662C226.621 29.3171 223.439 26.2081 219.574 26.2081C215.634 26.2081 212.452 29.3171 212.452 33.1662C212.452 37.0154 215.634 40.0503 219.574 40.0503Z" fill="#FF4F17"/>
<path fill-rule="evenodd" clip-rule="evenodd" d="M117.44 34.7947H99.4826C99.7099 38.4958 102.438 40.5684 105.771 40.5684C108.347 40.5684 110.09 39.7542 110.999 38.0517H117.061C115.47 42.567 112.212 45.3058 105.923 45.3058C98.8007 45.3058 93.7243 40.4204 93.7243 33.0922C93.7243 26.0601 98.3461 21.0266 105.771 21.0266C112.439 21.0266 117.515 25.2459 117.515 32.6481C117.515 33.0922 117.515 33.6103 117.44 34.7947ZM111.909 30.8715C111.605 27.5405 109.56 25.69 105.923 25.69C102.362 25.69 100.013 27.6886 99.4826 30.8715H111.909Z" fill="#FF4F17"/>
<path d="M73.4937 36.9413C72.5845 39.5321 70.8419 40.5684 68.2658 40.5684C63.947 40.5684 62.1286 37.3114 62.1286 33.0922C62.1286 28.8729 64.2501 25.69 68.3415 25.69C70.9176 25.69 72.6603 27.0224 73.4937 29.3171H79.4794C78.1155 23.7654 73.8726 21.0266 68.2658 21.0266C60.689 21.0266 56.3702 26.2822 56.3702 33.0922C56.3702 40.4944 61.4467 45.3058 68.2658 45.3058C75.0848 45.3058 78.3428 41.5307 79.4794 36.9413H73.4937Z" fill="#FF4F17"/>
<path fill-rule="evenodd" clip-rule="evenodd" d="M145.246 21.1006V45.2318H139.639V43.1592C137.593 44.4916 135.169 45.3058 132.517 45.3058C125.622 45.3058 120.091 39.9022 120.091 33.1662C120.091 26.4302 125.622 21.0266 132.517 21.0266C135.169 21.0266 137.593 21.8409 139.639 23.1732V21.1006H145.246ZM139.563 33.1662C139.563 29.3171 136.381 26.2081 132.517 26.2081C128.577 26.2081 125.394 29.3171 125.394 33.1662C125.394 37.0154 128.577 40.0503 132.517 40.0503C136.381 40.0503 139.563 37.0154 139.563 33.1662Z" fill="#FF4F17"/>
</svg>
